<?xml version="1.0" encoding="iso-8859-1"?>
<!-- Generator: Adobe Illustrator 19.0.0, SVG Export Plug-In . SVG Version: 6.00 Build 0)  -->
<svg version="1.1" id="Layer_1" xmlns="http://www.w3.org/2000/svg" xmlns:xlink="http://www.w3.org/1999/xlink" x="0px" y="0px"
	 viewBox="0 0 300.906 300.906" style="enable-background:new 0 0 300.906 300.906;" xml:space="preserve">
<g>
	<g>
		<path d="M288.953,0h-277c-5.522,0-10,4.478-10,10v49.531c0,5.522,4.478,10,10,10h12.372l91.378,107.397v113.978
			c0,3.688,2.03,7.076,5.281,8.816c1.479,0.792,3.101,1.184,4.718,1.184c1.94,0,3.875-0.564,5.548-1.68l49.5-33
			c2.782-1.854,4.453-4.977,4.453-8.32v-80.978l91.378-107.397h12.372c5.522,0,10-4.478,10-10V10C298.953,4.478,294.476,0,288.953,0
			z M167.587,166.77c-1.539,1.809-2.384,4.105-2.384,6.48v79.305l-29.5,19.666V173.25c0-2.375-0.845-4.672-2.384-6.48L50.585,69.531
			h199.736L167.587,166.77z M278.953,49.531h-257V20h257V49.531z"/>
	</g>
</g>
<g>
</g>
<g>
</g>
<g>
</g>
<g>
</g>
<g>
</g>
<g>
</g>
<g>
</g>
<g>
</g>
<g>
</g>
<g>
</g>
<g>
</g>
<g>
</g>
<g>
</g>
<g>
</g>
<g>
</g>
</svg>
