<svg xmlns="http://www.w3.org/2000/svg" viewBox="0 0 548.1 464.7">
<style type="text/css">
	.st0{fill:#58595B;}
</style>
<g>
	<g>
		<path class="st0" d="M218.3,336.8c-85.9,0-155.8-69.9-155.8-155.8S132.4,25.2,218.3,25.2S374.1,95.1,374.1,181
			S304.2,336.8,218.3,336.8z M218.3,62.5C153,62.5,99.8,115.7,99.8,181c0,65.4,53.2,118.5,118.5,118.5
			c65.4,0,118.5-53.2,118.5-118.5C336.9,115.7,283.7,62.5,218.3,62.5z"/>
	</g>
	<g>
		<path class="st0" d="M466,447.3c-4.8,0-9.5-1.8-13.2-5.5L302.3,291.3c-7.3-7.3-7.3-19.1,0-26.3c7.3-7.3,19.1-7.3,26.3,0
			l150.5,150.5c7.3,7.3,7.3,19.1,0,26.3C475.5,445.5,470.7,447.3,466,447.3z"/>
	</g>
</g>
</svg>
